{"title":"The Last Stand 2013 CAM XviD AC3 - TODE","uid":8059602,"size":730422334,"categoryP":"video","categoryS":"movies","magnet":"?xt=urn:btih:343aaace05ee2f4feed08b414a927cd64febc94a&amp;dn=The+Last+Stand+2013+CAM+XviD+AC3+-+TODE&amp;tr=udp%3A%2F%2Ftracker.openbittorrent.com%3A80&amp;tr=udp%3A%2F%2Fopen.demonii.com%3A1337&amp;tr=udp%3A%2F%2Ftracker.coppersurfer.tk%3A6969&amp;tr=udp%3A%2F%2Fexodus.desync.com%3A6969","seeders":1,"leechers":0,"uploader":"xxxlavalxxx","files":1,"time":1359041553,"description":" &lt;a href=&quot;http://www.shotpix.com/images/95304088325044359995.jpg&quot; rel=&quot;nofollow&quot; target=&quot;_NEW&quot;&gt;http://www.shotpix.com/images/95304088325044359995.jpg&lt;/a&gt;\n\n\n &lt;a href=&quot;\nhttp://www.imdb.com/title/tt1549920/&quot; rel=&quot;nofollow&quot; target=&quot;_NEW&quot;&gt;\nhttp://www.imdb.com/title/tt1549920/&lt;/a&gt;\n\n\nThe leader of a drug cartel busts out of a courthouse and speeds to the Mexican border, where the only thing in his path is a sheriff and his inexperienced staff.\n \n\n\nDirector: \nJee-woon Kim\n\n Writers: \nAndrew Knauer (screenplay), Jeffrey Nachmanoff (rewrite) \n\nStars:\n Arnold Schwarzenegger, Forest Whitaker and Johnny Knoxville\n\nGenres:\n Action | Crime | Thriller \n\n\n\n\nFormat                                   : AVI\nFormat/Info                              : Audio Video Interleave\nFile size                                : 697 MiB\nDuration                                 : 1h 39mn\nOverall bit rate                         : 982 Kbps\nWriting application                      : Lavf54.59.103\n\nVideo\nID                                       : 0\nFormat                                   : MPEG-4 Visual\nFormat profile                           : Simple@L3\nFormat settings, BVOP                    : No\nFormat settings, QPel                    : No\nFormat settings, GMC                     : No warppoints\nFormat settings, Matrix                  : Default (H.263)\nCodec ID                                 : XVID\nCodec ID/Hint                            : XviD\nDuration                                 : 1h 39mn\nBit rate                                 : 890 Kbps\nWidth                                    : 640 pixels\nHeight                                   : 272 pixels\nDisplay aspect ratio                     : 2.35:1\nFrame rate                               : 29.970 fps\nColor space                              : YUV\nChroma subsampling                       : 4:2:0\nBit depth                                : 8 bits\nScan type                                : Progressive\nCompression mode                         : Lossy\nBits/(Pixel*Frame)                       : 0.171\nStream size                              : 631 MiB (91%)\nWriting library                          : XviD 64\n\nAudio\nID                                       : 1\nFormat                                   : AC-3\nFormat/Info                              : Audio Coding 3\nMode extension                           : CM (complete main)\nFormat settings, Endianness              : Big\nCodec ID                                 : 2000\nDuration                                 : 1h 39mn\nBit rate mode                            : Constant\nBit rate                                 : 80.0 Kbps\nChannel(s)                               : 2 channels\nChannel positions                        : Front: L R\nSampling rate                            : 48.0 KHz\nBit depth                                : 16 bits\nCompression mode                         : Lossy\nStream size                              : 56.8 MiB (8%)\nAlignment                                : Aligned on interleaves\nInterleave, duration                     : 32 ms (0.96 video frame)\n\n\n\n &lt;a href=&quot;\nhttp://www.shotpix.com/images/98982990020981051483.png&quot; rel=&quot;nofollow&quot; target=&quot;_NEW&quot;&gt;\nhttp://www.shotpix.com/images/98982990020981051483.png&lt;/a&gt; &lt;a href=&quot;\nhttp://www.shotpix.com/images/27821706769887173073.png&quot; rel=&quot;nofollow&quot; target=&quot;_NEW&quot;&gt;\nhttp://www.shotpix.com/images/27821706769887173073.png&lt;/a&gt; &lt;a href=&quot;\nhttp://www.shotpix.com/images/49818261473742903784.png&quot; rel=&quot;nofollow&quot; target=&quot;_NEW&quot;&gt;\nhttp://www.shotpix.com/images/49818261473742903784.png&lt;/a&gt; &lt;a href=&quot;\nhttp://www.shotpix.com/images/82322946938571930522.png&quot; rel=&quot;nofollow&quot; target=&quot;_NEW&quot;&gt;\nhttp://www.shotpix.com/images/82322946938571930522.png&lt;/a&gt; &lt;a href=&quot;\nhttp://www.shotpix.com/images/18950782504042719365.png&quot; rel=&quot;nofollow&quot; target=&quot;_NEW&quot;&gt;\nhttp://www.shotpix.com/images/18950782504042719365.png&lt;/a&gt;\n\n","torrent":{"xt":"urn:btih:343aaace05ee2f4feed08b414a927cd64febc94a","amp;dn":"The+Last+Stand+2013+CAM+XviD+AC3+-+TODE","amp;tr":["udp%3A%2F%2Ftracker.openbittorrent.com%3A80","udp%3A%2F%2Fopen.demonii.com%3A1337","udp%3A%2F%2Ftracker.coppersurfer.tk%3A6969","udp%3A%2F%2Fexodus.desync.com%3A6969"],"infoHash":"343aaace05ee2f4feed08b414a927cd64febc94a","infoHashBuffer":{"type":"Buffer","data":[52,58,170,206,5,238,47,79,238,208,139,65,74,146,124,214,79,235,201,74]},"announce":[],"urlList":[]}}